<?xml version="1.0" encoding="utf-8"?>
<!-- Generator: Adobe Illustrator 19.0.0, SVG Export Plug-In . SVG Version: 6.00 Build 0)  -->
<svg version="1.1" id="Camada_1" xmlns="http://www.w3.org/2000/svg" xmlns:xlink="http://www.w3.org/1999/xlink" x="0px" y="0px"
	 viewBox="-152 77 334 328" style="enable-background:new -152 77 334 328;" xml:space="preserve">
<style type="text/css">
	.st0{fill:#ABB8C3;}
</style>
<path id="XMLID_8_" class="st0" d="M-134.9,89.3l-0.3,302.3l302.3,0.3l0.3-302.3L-134.9,89.3z M28.8,196.9c14-4,29.1,1.7,43,7.6
	c-8.4,11.6-18.6,25.1-32.6,29c-14,4-22.4-2.5-25.3-12.6l0,0C11.1,210.8,14.8,200.9,28.8,196.9z M-24.4,123.5
	c14.1,5.4,29,11.7,36.3,24.2c7.4,12.5,3.3,22.3-5.8,27.6l0,0c-9.1,5.3-19.6,4.2-27-8.3S-26.4,137.7-24.4,123.5z M-100.4,124.8
	c14-4,29.1,1.7,43,7.6c-8.4,11.7-18.6,25.1-32.6,29c-14,4-22.4-2.5-25.3-12.6l0,0C-118.1,138.7-114.4,128.8-100.4,124.8z
	 M-117.2,286.2L-117.2,286.2c-2.9-10.1,0.9-20,14.9-24s29.1,1.7,43,7.6c-8.4,11.6-18.6,25.1-32.6,29
	C-106,302.7-114.4,296.3-117.2,286.2z M-58.9,363.7c-7.3,12.6-17.9,13.7-27,8.4l0,0c-9.1-5.3-13.2-15.1-5.9-27.6
	c7.3-12.6,22.1-18.9,36.2-24.4C-53.5,334.4-51.6,351.1-58.9,363.7z M-57,226.4c-7.3,12.6-17.9,13.7-27,8.4l0,0
	c-9.1-5.3-13.2-15.1-5.9-27.6c7.3-12.6,22.1-18.9,36.2-24.4C-51.6,197-49.7,213.8-57,226.4z M4.1,312.7L4.1,312.7
	c-9.1,5.3-19.6,4.2-27-8.3c-7.4-12.5-5.5-29.3-3.6-43.5c14.1,5.4,29,11.7,36.3,24.2C17.3,297.6,13.2,307.4,4.1,312.7z M37.3,370.9
	c-14,4-22.4-2.5-25.3-12.6l0,0c-2.9-10.1,0.9-20,14.9-24s29.1,1.7,43,7.6C61.5,353.5,51.3,366.9,37.3,370.9z M82.5,297.3
	c-9.6,10.9-20.2,10-28.1,3.1l0,0c-7.9-7-10.1-17.3-0.5-28.2s25.4-14.3,40.3-16.9C93.5,269.6,92.1,286.4,82.5,297.3z M84.5,160
	c-9.6,10.9-20.2,10-28.1,3.1c-7.9-7-10.1-17.3-0.5-28.2c9.6-10.9,25.4-14.3,40.3-16.9C95.4,132.3,94.1,149.1,84.5,160z M125.5,355.2
	L125.5,355.2c-10.5,0.2-19.1-6-19.3-20.6c-0.2-14.5,9.2-27.7,18.5-39.6c9.1,11.1,19.4,24.5,19.6,39
	C144.4,348.6,136,355.1,125.5,355.2z M127.4,217.9L127.4,217.9c-10.5,0.2-19.1-6-19.3-20.6c-0.2-14.5,9.2-27.7,18.5-39.6
	c9.1,11.1,19.4,24.5,19.6,39C146.4,211.3,138,217.8,127.4,217.9z"/>
</svg>
