<?xml version="1.0" encoding="utf-8"?>
<!-- Generator: Adobe Illustrator 19.0.0, SVG Export Plug-In . SVG Version: 6.00 Build 0)  -->
<svg version="1.1" id="Camada_1" xmlns="http://www.w3.org/2000/svg" xmlns:xlink="http://www.w3.org/1999/xlink" x="0px" y="0px"
	 viewBox="0 0 334 328" style="enable-background:new 0 0 334 328;" xml:space="preserve">
<style type="text/css">
	.st0{fill:#F90B0B;}
</style>
<path id="XMLID_8_" class="st0" d="M17.1,12.3l-0.3,302.3l302.3,0.3l0.3-302.3L17.1,12.3z M180.8,119.9c14-4,29.1,1.7,43,7.6
	c-8.4,11.6-18.6,25.1-32.6,29c-14,4-22.4-2.5-25.3-12.6l0,0C163.1,133.8,166.8,123.9,180.8,119.9z M127.6,46.5
	c14.1,5.4,29,11.7,36.3,24.2c7.4,12.5,3.3,22.3-5.8,27.6v0c-9.1,5.3-19.6,4.2-27-8.3C123.7,77.5,125.6,60.7,127.6,46.5z M51.6,47.8
	c14-4,29.1,1.7,43,7.6C86.2,67.1,76,80.5,62,84.4c-14,4-22.4-2.5-25.3-12.6l0,0C33.9,61.7,37.6,51.8,51.6,47.8z M34.8,209.2
	L34.8,209.2c-2.9-10.1,0.9-20,14.9-24c14-4,29.1,1.7,43,7.6c-8.4,11.6-18.6,25.1-32.6,29C46,225.7,37.6,219.3,34.8,209.2z
	 M93.1,286.7c-7.3,12.6-17.9,13.7-27,8.4v0c-9.1-5.3-13.2-15.1-5.9-27.6c7.3-12.6,22.1-18.9,36.2-24.4
	C98.5,257.4,100.4,274.1,93.1,286.7z M95,149.4c-7.3,12.6-17.9,13.7-27,8.4v0c-9.1-5.3-13.2-15.1-5.9-27.6
	c7.3-12.6,22.1-18.9,36.2-24.4C100.4,120,102.3,136.8,95,149.4z M156.1,235.7L156.1,235.7c-9.1,5.3-19.6,4.2-27-8.3
	c-7.4-12.5-5.5-29.3-3.6-43.5c14.1,5.4,29,11.7,36.3,24.2C169.3,220.6,165.2,230.4,156.1,235.7z M189.3,293.9
	c-14,4-22.4-2.5-25.3-12.6l0,0c-2.9-10.1,0.9-20,14.9-24c14-4,29.1,1.7,43,7.6C213.5,276.5,203.3,289.9,189.3,293.9z M234.5,220.3
	c-9.6,10.9-20.2,10-28.1,3.1v0c-7.9-7-10.1-17.3-0.5-28.2c9.6-10.9,25.4-14.3,40.3-16.9C245.5,192.6,244.1,209.4,234.5,220.3z
	 M236.5,83c-9.6,10.9-20.2,10-28.1,3.1c-7.9-7-10.1-17.3-0.5-28.2c9.6-10.9,25.4-14.3,40.3-16.9C247.4,55.3,246.1,72.1,236.5,83z
	 M277.5,278.2L277.5,278.2c-10.5,0.2-19.1-6-19.3-20.6c-0.2-14.5,9.2-27.7,18.5-39.6c9.1,11.1,19.4,24.5,19.6,39
	C296.4,271.6,288,278.1,277.5,278.2z M279.4,140.9L279.4,140.9c-10.5,0.2-19.1-6-19.3-20.6c-0.2-14.5,9.2-27.7,18.5-39.6
	c9.1,11.1,19.4,24.5,19.6,39C298.4,134.3,290,140.8,279.4,140.9z"/>
</svg>
