<?xml version="1.0" encoding="utf-8"?>
<!-- Generator: Adobe Illustrator 19.0.0, SVG Export Plug-In . SVG Version: 6.00 Build 0)  -->
<svg version="1.1" id="Camada_1" xmlns="http://www.w3.org/2000/svg" xmlns:xlink="http://www.w3.org/1999/xlink" x="0px" y="0px"
	 viewBox="0 0 310.7 312.7" style="enable-background:new 0 0 310.7 312.7;" xml:space="preserve">
<style type="text/css">
	.st0{fill:#F90B0B;}
</style>
<g id="XMLID_4_">
	<g id="XMLID_6_">
		<path id="XMLID_24_" class="st0" d="M154.4,254.6c-0.7-0.9-1.6-1.6-2.5-2.2s-2-0.8-3.1-0.8c-1.1,0-2.1,0.3-3.1,0.8
			c-1,0.5-1.8,1.2-2.5,2.2c-0.7,0.9-1.2,2-1.6,3.2c-0.4,1.2-0.6,2.5-0.6,3.9V272h16v-10.2c0-1.4-0.3-2.7-0.8-3.9
			C155.8,256.6,155.1,255.5,154.4,254.6z"/>
	</g>
	<g id="XMLID_15_">
		<path id="XMLID_22_" class="st0" d="M175.3,196.8c0-2.8-0.5-5.4-1.4-7.9s-2.3-4.6-3.9-6.4c-1.6-1.8-3.6-3.3-5.8-4.3
			s-4.6-1.6-7.1-1.6c-2.5,0-4.9,0.5-7.2,1.6c-2.2,1.1-4.2,2.5-5.8,4.3c-1.7,1.8-3,4-4,6.4c-1,2.5-1.5,5.1-1.5,7.9
			c0,2.8,0.5,5.4,1.4,7.8s2.3,4.6,3.9,6.4c1.7,1.8,3.6,3.3,5.8,4.4c2.2,1.1,4.6,1.6,7.2,1.6c2.5,0,4.9-0.5,7.1-1.6
			c2.2-1.1,4.2-2.5,5.8-4.3c1.7-1.8,3-4,3.9-6.4C174.8,202.2,175.3,199.6,175.3,196.8z"/>
	</g>
	<g id="XMLID_63_">
		<path id="XMLID_20_" class="st0" d="M278,182.8c-1.6-1.8-3.6-3.3-5.8-4.3c-2.2-1.1-4.6-1.6-7.1-1.6c-2.5,0-4.9,0.5-7.2,1.6
			c-2.2,1.1-4.2,2.5-5.8,4.3c-1.7,1.8-3,4-4,6.4c-1,2.5-1.5,5.1-1.5,7.9s0.5,5.4,1.4,7.8c1,2.4,2.3,4.6,3.9,6.4
			c1.7,1.8,3.6,3.3,5.8,4.4c2.2,1.1,4.6,1.6,7.2,1.6c2.5,0,4.9-0.5,7.1-1.6c2.2-1.1,4.2-2.5,5.8-4.3c1.7-1.8,3-4,3.9-6.4
			c1-2.4,1.5-5,1.5-7.8s-0.5-5.4-1.4-7.9C280.9,186.7,279.6,184.6,278,182.8z"/>
	</g>
	<g id="XMLID_67_">
		<path id="XMLID_18_" class="st0" d="M283,254.6c-0.7-0.9-1.6-1.6-2.5-2.2s-2-0.8-3.1-0.8c-1.1,0-2.1,0.3-3.1,0.8s-1.8,1.2-2.5,2.2
			c-0.7,0.9-1,2-1.5,3.2c-0.4,1.2-0.4,2.5-0.4,3.9V272h15v-10.2c0-1.4,0-2.7-0.4-3.9S283.8,255.5,283,254.6z"/>
	</g>
	<g id="XMLID_70_">
		<g id="XMLID_375_">
			<path id="XMLID_376_" class="st0" d="M5.1,6.3L4.8,308.6l302.3,0.3l0.3-302.3L5.1,6.3z M281.5,32.4c4.2-1.2,8.8,0.5,13,2.3
				c-2.5,3.5-5.6,7.6-9.9,8.8c-4.2,1.2-6.8-0.8-7.7-3.8l0,0C276.2,36.6,277.3,33.6,281.5,32.4z M281.9,63.5c3.1,3.1,2.6,6.3,0.4,8.5
				c-2.3,2.2-5.4,2.7-8.5-0.4c-3.1-3.1-3.8-8-4.3-12.5C273.7,59.6,278.8,60.3,281.9,63.5z M269.8,107.2c0.7,4.3,1.4,9.4-0.8,13.2
				c-2.1,3.8-5.3,4.3-8.1,2.7v0c-2.8-1.6-4.1-4.5-1.9-8.3C261.1,110.9,265.5,108.9,269.8,107.2z M247.7,90.5
				c-2.2-3.8-1.5-8.9-0.8-13.2c4.2,1.7,8.7,3.7,10.9,7.5c2.2,3.8,0.9,6.8-1.9,8.3v0C253.1,94.8,249.9,94.4,247.7,90.5z M258.7,44
				c3.1,3.1,2.6,6.3,0.4,8.5h0c-2.3,2.2-5.4,2.7-8.5-0.4c-3.1-3.1-3.8-8-4.3-12.5C250.5,40.1,255.6,40.8,258.7,44z M230.5,120.6
				c0,4.4-2.6,6.3-5.8,6.3v0c-3.2,0-5.8-1.9-5.7-6.3c0-4.4,2.9-8.3,5.8-11.9C227.5,112.1,230.5,116.2,230.5,120.6z M215.9,39.7
				c2.7,3.4,5.7,7.5,5.7,11.9c0,4.4-2.6,6.3-5.8,6.3v0c-3.2,0-5.8-1.9-5.7-6.3C210.1,47.1,213,43.2,215.9,39.7z M210.6,88.5
				c2.2-3.8,6.7-5.7,11-7.4c0.6,4.3,1.2,9.4-1,13.2c-2.2,3.8-5.4,4.2-8.2,2.6S208.4,92.3,210.6,88.5z M198.2,78.8
				c-2.2,3.8-5.4,4.2-8.2,2.6c-2.7-1.6-4-4.6-1.8-8.4c2.2-3.8,6.7-5.7,11-7.4C199.8,70,200.4,75,198.2,78.8z M192.6,105.1
				c-0.3,4.3-0.8,9.4-3.8,12.7c-3,3.2-6.2,2.9-8.5,0.8l0,0c-2.3-2.2-3-5.3,0-8.6S188,105.8,192.6,105.1z M180.4,26.5
				c3.5-2.7,8.4-2.8,12.9-2.7c-1.1,4.2-2.4,9.1-5.9,11.8c-3.5,2.7-6.6,1.8-8.5-0.7C176.9,32.4,176.9,29.2,180.4,26.5z M161.2,53.6
				c3-3.2,7.8-4.2,12.3-4.9c-0.3,4.3-0.8,9.4-3.8,12.7c-3,3.2-6.2,2.9-8.5,0.8v0C158.8,60,158.2,56.8,161.2,53.6z M154,88.5
				c2.2-3.8,6.7-5.7,11-7.4c0.6,4.3,1.2,9.4-1,13.2c-2.2,3.8-5.4,4.2-8.2,2.6S151.8,92.3,154,88.5z M135.6,39.7
				c3.2,3.1,2.7,6.3,0.5,8.5v0c-2.2,2.3-5.4,2.8-8.5-0.3c-3.2-3.1-4-7.9-4.5-12.4C127.4,36,132.5,36.7,135.6,39.7z M133.9,93.1
				c-2.7,1.6-5.9,1.3-8.2-2.5c-2.2-3.8-1.7-8.9-1.1-13.2c4.3,1.6,8.8,3.5,11,7.3C137.9,88.5,136.7,91.5,133.9,93.1z M135.6,112.4
				c3.2,3.1,2.7,6.3,0.5,8.5c-2.2,2.3-5.4,2.8-8.5-0.3c-3.2-3.1-4-7.9-4.5-12.4C127.4,108.7,132.5,109.4,135.6,112.4z M98.3,30.5
				c2.7,3.4,5.9,7.4,5.9,11.8c0.1,4.4-2.5,6.4-5.7,6.4v0c-3.2,0-5.8-1.8-5.9-6.2C92.7,38.1,95.5,34.1,98.3,30.5z M104.3,122.3
				c0.1,4.4-2.5,6.4-5.7,6.4v0c-3.2,0-5.8-1.8-5.9-6.2c-0.1-4.4,2.8-8.4,5.6-12C101.1,113.9,104.2,117.9,104.3,122.3z M87.3,88.7
				c2.1-3.8,6.6-5.9,10.8-7.6c0.7,4.3,1.4,9.4-0.8,13.2c-2.1,3.8-5.3,4.3-8.1,2.7v0C86.4,95.5,85.1,92.5,87.3,88.7z M72.7,76.4
				c2.2,3.8,1,6.8-1.8,8.4s-5.9,1.3-8.2-2.5c-2.2-3.8-1.7-8.9-1.1-13.2C66,70.7,70.4,72.6,72.7,76.4z M67.5,105
				c-0.2,4.3-0.6,9.4-3.6,12.7c-2.9,3.3-6.1,3-8.5,0.9c-2.4-2.1-3.1-5.2-0.1-8.5C58.2,106.8,63,105.8,67.5,105z M51.6,42.1
				c2.9-3.3,7.7-4.3,12.2-5.1c-0.2,4.3-0.6,9.4-3.6,12.7s-6.1,3-8.5,0.9C49.3,48.5,48.7,45.4,51.6,42.1z M35.3,85.9
				c-2.1,3.8-5.3,4.3-8.1,2.7v0c-2.8-1.6-4.1-4.5-1.9-8.3c2.1-3.8,6.6-5.9,10.8-7.6C36.7,77,37.4,82.1,35.3,85.9z M20,31.7
				c4.2-1.2,8.8,0.5,13,2.3c-2.5,3.5-5.6,7.6-9.9,8.8c-4.2,1.2-6.8-0.8-7.7-3.8v0C14.6,35.9,15.8,32.9,20,31.7z M17.3,122.7
				L17.3,122.7c-0.9-3.1,0.3-6.1,4.5-7.3c4.2-1.2,8.8,0.5,13,2.3c-2.5,3.5-5.6,7.6-9.9,8.8C20.7,127.7,18.1,125.8,17.3,122.7z
				 M61.8,292h-7.9v-36c0-0.7-0.1-1.4-0.3-2c-0.2-0.6-0.5-1.1-0.9-1.6s-0.8-0.8-1.3-1.1c-0.5-0.3-1-0.4-1.5-0.4
				c-0.6,0-1.1,0.1-1.5,0.4c-0.5,0.3-0.9,0.6-1.3,1.1s-0.6,1-0.8,1.6c-0.2,0.6-0.3,1.3-0.3,2v36h-7.9v-36c0-0.7-0.1-1.4-0.3-2
				c-0.2-0.6-0.5-1.1-0.8-1.6c-0.4-0.5-0.8-0.8-1.3-1.1c-0.5-0.3-1-0.4-1.5-0.4s-1.1,0.1-1.5,0.4s-0.9,0.6-1.3,1.1
				c-0.4,0.5-0.6,1-0.8,1.6s-0.3,1.3-0.3,2v36h-7.9v-36c0-2.1,0.3-4,0.9-5.9c0.6-1.8,1.5-3.4,2.5-4.8s2.3-2.4,3.8-3.2
				c1.4-0.8,3-1.2,4.6-1.2c1.5,0,2.9,0.3,4.3,1s2.6,1.6,3.7,2.9c1.1-1.3,2.3-2.2,3.7-2.9c1.4-0.7,2.8-1,4.2-1c1.6,0,3.2,0.4,4.6,1.2
				c1.4,0.8,2.7,1.9,3.8,3.2s1.9,3,2.5,4.8c0.6,1.8,0.9,3.8,0.9,5.9V292z M63,207.9c-2.1,2.3-4.5,4.1-7.4,5.4c-2.8,1.3-5.8,2-9,2
				l-11.5,0l0,12.7l-11.5,0l0.1-63.5l23.1,0.1c2.1,0,4.2,0.3,6.1,0.9c2,0.6,3.8,1.5,5.5,2.6c1.7,1.1,3.3,2.4,4.7,4s2.6,3.3,3.6,5.2
				c1,1.9,1.8,3.9,2.3,6.1c0.5,2.2,0.8,4.4,0.8,6.7c0,3.5-0.6,6.8-1.8,9.9C66.8,202.9,65.1,205.6,63,207.9z M96,251.7H76.8v10.1h13
				v10.1h-13v10.1H96V292H68.9v-50.4H96V251.7z M88.1,215.4l0,12.7l-11.5,0l0.1-63.5l23.1,0.1c2.1,0,4.2,0.3,6.1,0.9
				c2,0.6,3.8,1.5,5.5,2.6c1.7,1.1,3.3,2.4,4.7,4c1.4,1.6,2.6,3.3,3.6,5.2s1.8,3.9,2.3,6.1c0.5,2.2,0.8,4.4,0.8,6.7
				c0,2.2-0.3,4.3-0.8,6.4c-0.5,2.1-1.2,4-2.1,5.9c-0.9,1.9-2.1,3.6-3.4,5.1c-1.3,1.6-2.8,2.9-4.5,4.1l6.4,16.6l-12.3,0l-5-12.8
				L88.1,215.4z M129.3,292h-27.7v-50.4h7.9v40.3h19.8V292z M164.7,292h-7.9v-10.1h-15.9V292H133v-30.2c0-2.8,0.4-5.4,1.2-7.9
				s2-4.6,3.4-6.4c1.4-1.8,3.1-3.3,5-4.3c1.9-1.1,4-1.6,6.2-1.6c2.2,0,4.2,0.5,6.2,1.6c1.9,1.1,3.6,2.5,5,4.3c1.4,1.8,2.6,4,3.4,6.4
				s1.2,5.1,1.2,7.9V292z M156.9,229.7c-2.7,0-5.4-0.4-7.9-1.2s-4.9-1.9-7.1-3.3s-4.2-3.2-6-5.2c-1.8-2-3.4-4.2-4.7-6.7
				c-1.3-2.4-2.3-5.1-3-7.8c-0.7-2.8-1.1-5.7-1-8.7s0.4-5.9,1.1-8.7c0.7-2.8,1.7-5.4,3-7.8c1.3-2.4,2.9-4.6,4.7-6.6
				c1.8-2,3.8-3.7,6.1-5.1c2.2-1.4,4.6-2.5,7.1-3.3c2.5-0.8,5.2-1.2,7.9-1.2c2.7,0,5.4,0.4,7.9,1.2c2.5,0.8,4.9,1.9,7.1,3.3
				c2.2,1.4,4.2,3.1,6,5.2c1.8,2,3.4,4.2,4.6,6.7c1.3,2.4,2.3,5,3,7.8c0.7,2.8,1.1,5.7,1,8.7s-0.4,5.9-1.1,8.7
				c-0.7,2.8-1.7,5.4-3,7.8c-1.3,2.4-2.9,4.7-4.7,6.7c-1.8,2-3.8,3.7-6,5.1c-2.2,1.4-4.6,2.5-7.1,3.3S159.6,229.7,156.9,229.7z
				 M203.2,292h-8.5l-15.3-33.2V292h-7.9v-50.4h8.5l15.3,33.2v-33.2h7.9V292z M187.9,177.5l0-12.7l46.1,0.1l0,12.7l-17.3,0
				l-0.1,50.8l-11.5,0l0.1-50.8L187.9,177.5z M217.3,273.2c0.7,1.9,1.6,3.6,2.7,5.1s2.5,2.6,4,3.4s3.2,1.3,4.9,1.3
				c1.7,0,3.4-0.4,5-1.3c1.6-0.9,3-2.1,4.1-3.7l4.2,8.8c-1.8,2-3.9,3.6-6.2,4.6s-4.6,1.6-7.1,1.6c-1.9,0-3.7-0.3-5.4-0.9
				s-3.4-1.5-4.9-2.6c-1.5-1.1-2.9-2.5-4.2-4.1c-1.3-1.6-2.3-3.4-3.2-5.3c-0.9-1.9-1.6-4-2.1-6.2c-0.5-2.2-0.7-4.5-0.7-6.9
				s0.2-4.7,0.7-6.9c0.5-2.2,1.2-4.3,2.1-6.2c0.9-1.9,2-3.7,3.2-5.3c1.3-1.6,2.6-3,4.2-4.1c1.5-1.1,3.1-2,4.9-2.6s3.5-0.9,5.4-0.9
				c2.4,0,4.8,0.5,7.1,1.6s4.3,2.6,6.2,4.7l-4.2,8.8c-1.2-1.6-2.5-2.8-4.1-3.7c-1.6-0.9-3.2-1.3-5-1.3c-1.8,0-3.4,0.4-4.9,1.3
				s-2.9,2-4,3.4s-2,3.1-2.7,5.1c-0.7,2-1,4-1,6.2S216.6,271.3,217.3,273.2z M254.7,292h-7.9v-50.4h7.9V292z M293.3,292h-7.9v-10.1
				h-15.9V292h-7.9v-30.2c0-2.8,0.4-5.4,1.2-7.9c0.8-2.4,2-4.6,3.4-6.4c1.4-1.8,3.1-3.3,5-4.3s4-1.6,6.2-1.6s4.2,0.5,6.2,1.6
				c1.9,1.1,3.6,2.5,5,4.3s2.6,4,3.4,6.4c0.8,2.4,1.2,5.1,1.2,7.9V292z M293.7,205.8c-0.7,2.8-1.7,5.4-3,7.8
				c-1.3,2.4-2.9,4.7-4.7,6.7c-1.8,2-3.8,3.7-6,5.1c-2.2,1.4-4.6,2.5-7.1,3.3s-5.2,1.2-7.9,1.2s-5.4-0.4-7.9-1.2s-4.9-1.9-7.1-3.3
				s-4.2-3.2-6-5.2c-1.8-2-3.4-4.2-4.7-6.7c-1.3-2.4-2.3-5.1-3-7.8c-0.7-2.8-1.1-5.7-1-8.7s0.4-5.9,1.1-8.7c0.7-2.8,1.7-5.4,3-7.8
				c1.3-2.4,2.9-4.6,4.7-6.6c1.8-2,3.8-3.7,6.1-5.1s4.6-2.5,7.1-3.3c2.5-0.8,5.2-1.2,7.9-1.2c2.7,0,5.4,0.4,7.9,1.2
				c2.5,0.8,4.9,1.9,7.1,3.3c2.2,1.4,4.2,3.1,6,5.2c1.8,2,3.4,4.2,4.6,6.7c1.3,2.4,2.3,5,3,7.8c0.7,2.8,1.1,5.7,1,8.7
				S294.4,203,293.7,205.8z M290.6,107.7L290.6,107.7c-3.2,0-5.8-1.8-5.9-6.2c-0.1-4.4,2.8-8.4,5.6-12c2.7,3.4,5.9,7.4,5.9,11.8
				C296.4,105.7,293.8,107.6,290.6,107.7z"/>
		</g>
	</g>
	<g id="XMLID_109_">
		<path id="XMLID_16_" class="st0" d="M110.3,195c0.6-1.5,0.9-3.2,0.9-4.9c0-1.7-0.3-3.4-0.9-4.9c-0.6-1.6-1.4-2.9-2.5-4.1
			s-2.3-2.1-3.7-2.7c-1.4-0.7-2.9-1-4.5-1l-11.5,0l-0.1,25.4l11.5,0c1.6,0,3.1-0.3,4.5-1c1.4-0.7,2.6-1.6,3.7-2.7
			C108.8,197.9,109.7,196.6,110.3,195z"/>
	</g>
	<g id="XMLID_110_">
		<path id="XMLID_13_" class="st0" d="M54.9,181c-1-1.2-2.3-2.1-3.7-2.7c-1.4-0.7-2.9-1-4.5-1l-11.5,0l-0.1,25.4l11.5,0
			c1.6,0,3.1-0.3,4.5-1c1.4-0.7,2.6-1.6,3.7-2.7c1-1.1,1.9-2.5,2.5-4s0.9-3.2,0.9-4.9c0-1.7-0.3-3.4-0.9-4.9S56,182.1,54.9,181z"/>
	</g>
</g>
</svg>
