<?xml version="1.0" encoding="utf-8"?>
<!-- Generator: Adobe Illustrator 19.0.0, SVG Export Plug-In . SVG Version: 6.00 Build 0)  -->
<svg version="1.1" id="Camada_1" xmlns="http://www.w3.org/2000/svg" xmlns:xlink="http://www.w3.org/1999/xlink" x="0px" y="0px"
	 viewBox="0 0 174.1 151.4" style="enable-background:new 0 0 174.1 151.4;" xml:space="preserve">
<style type="text/css">
	.st0{fill:#F7F4F4;}
</style>
<path id="XMLID_2_" class="st0" d="M141.9,43.5h-109c-6.6,0-12-5.4-12-12v-5.4c0-6.6,5.4-12,12-12h109c6.6,0,12,5.4,12,12v5.4
	C153.9,38.1,148.5,43.5,141.9,43.5z"/>
<path id="XMLID_4_" class="st0" d="M141.9,91.5h-109c-6.6,0-12-5.4-12-12v-5.4c0-6.6,5.4-12,12-12h109c6.6,0,12,5.4,12,12v5.4
	C153.9,86.1,148.5,91.5,141.9,91.5z"/>
<path id="XMLID_5_" class="st0" d="M141.9,139.5h-109c-6.6,0-12-5.4-12-12v-5.4c0-6.6,5.4-12,12-12h109c6.6,0,12,5.4,12,12v5.4
	C153.9,134.1,148.5,139.5,141.9,139.5z"/>
</svg>
